# xmcd
#
# Track frame offsets:
# 150
# 6935
# 31524
# 50666
# 66584
# 73152
# 89823
# 96847
# 132056
# 141862
# 158718
# 176229
#
# Disc length: 2566 seconds
#
# Revision: 0
# Processed by: cddbd v1.5.1PL2 Copyright (c) Steve Scherf et al.
# Submitted via: Audion 3.0.2 (http://www.panic.com/audion/)
#
DISCID=ad0a040c
DTITLE=Tony Gudwien - moov tracks (2)
DYEAR=1900
DGENRE=
TTITLE0=Very, Very Circus
TTITLE1=Catch Your Eye
TTITLE2=Still A Maze
TTITLE3=Dilenttanti
TTITLE4=Smooth Jazz
TTITLE5=A Bar in Old Town (circa '72)
TTITLE6=Back Door, Slightly Open
TTITLE7=Picture the Improving
TTITLE8=The Last Funeral Song
TTITLE9=The Dream Book
TTITLE10=You Don't Say
TTITLE11=From the Sunlight to the Shade
EXTD=
EXTT0=
EXTT1=
EXTT2=
EXTT3=
EXTT4=
EXTT5=
EXTT6=
EXTT7=
EXTT8=
EXTT9=
EXTT10=
EXTT11=
PLAYORDER=
